# xmcd
#
# Track frame offsets: 
#        183
#        15093
#        28930
#        41898
#        54400
#        68365
#        82533
#        96250
#        109628
#        120998
#        133143
#        146398
#        161133
#        174118
#        185163
#        198455
#        211433
#        226010
#        236888
#        249905
#        260525
#        273273
#
# Disc length: 3777 seconds
#
# Revision: 3
# Processed by: cddbd v1.5.2PL0 Copyright (c) Steve Scherf et al.
# Submitted via: ExactAudioCopy v0.99pb4
#
DISCID=210ebf16
DTITLE=Muddy Waters - Hoochie Coochie Man
DYEAR=1992
DGENRE=
TTITLE0=Baby Please Don't Go
TTITLE1=I Want You To Love Me
TTITLE2=I Just Want To Make Love To You
TTITLE3=I'm Your Hoochie Coochie Man
TTITLE4=I'm Ready
TTITLE5=Smokestack Lightnin'
TTITLE6=Young Fashioned Ways
TTITLE7=Manish Boy
TTITLE8=Sugar Sweet
TTITLE9=Trouble No More
TTITLE10=All Aboard
TTITLE11=Just To Be With You
TTITLE12=40 Days And 40 Nights
TTITLE13=Diamonds At Your Feet
TTITLE14=Don't Go No Further
TTITLE15=I Love The Life I Live, I Live The Life I Love
TTITLE16=Rock Me
TTITLE17=Look What You Done
TTITLE18=Got My Mojo Working
TTITLE19=Evil
TTITLE20=Good News
TTITLE21=Let Me Hang Around
EXTD=Muddy Waters, Volume 3\nRoots
EXTT0=
EXTT1=
EXTT2=
EXTT3=
EXTT4=
EXTT5=
EXTT6=
EXTT7=
EXTT8=
EXTT9=
EXTT10=
EXTT11=
EXTT12=
EXTT13=
EXTT14=
EXTT15=
EXTT16=
EXTT17=
EXTT18=
EXTT19=
EXTT20=
EXTT21=
PLAYORDER=
